<?xml version="1.0" encoding="UTF-8"?>
<!DOCTYPE svg PUBLIC "-//W3C//DTD SVG 1.1//EN" "http://www.w3.org/Graphics/SVG/1.1/DTD/svg11.dtd">
<!-- Creator: CorelDRAW X6 -->
<svg xmlns="http://www.w3.org/2000/svg" xml:space="preserve" width="134.555mm" height="144.238mm" version="1.1" style="shape-rendering:geometricPrecision; text-rendering:geometricPrecision; image-rendering:optimizeQuality; fill-rule:evenodd; clip-rule:evenodd"
viewBox="0 0 1555 1667"
 xmlns:xlink="http://www.w3.org/1999/xlink">
 <defs>
  <style type="text/css">
   <![CDATA[
    .fil0 {fill:#2A4493}
   ]]>
  </style>
 </defs>
 <g id="Слой_x0020_1">
  <metadata id="CorelCorpID_0Corel-Layer"/>
  <path class="fil0" d="M0 294c0,430 0,860 0,1290 13,54 60,75 117,83 305,0 610,0 915,1 121,0 116,-178 80,-214l-498 -446 -44 -41c-16,-15 -34,-27 -57,-27 -41,0 -73,33 -73,73 0,41 33,73 73,73 36,0 65,-25 72,-59l87 113c14,14 8,35 -26,35l-305 1c-56,0 -108,-9 -74,-68l249 -468 794 1028 137 0c58,-4 99,-8 109,-77l0 -1282c0,-56 -66,-104 -125,-104 -133,0 -264,0 -398,0l0 -203 -181 -1 0 312 -156 -312 -181 0 0 203 -396 0c-54,3 -114,1 -117,91zm510 319l0 0 -425 557c0,-266 -1,-555 -1,-821 0,-48 0,-52 55,-53l374 0 0 279 181 0 0 -263 156 263 181 0 0 -279c121,0 241,0 362,0 71,1 71,2 71,69l0 810 -430 -561 -525 0z"/>
 </g>
</svg>
